<?xml version="1.0" encoding="UTF-8"?>
<svg xmlns="http://www.w3.org/2000/svg" id="Layer_1" data-name="Layer 1" viewBox="0 0 500 500">
  <defs>
    <style>.cls-1{fill:#ff151f;}</style>
  </defs>
  <path class="cls-1" d="M103.67,288.87H71.56c-2.57,0-3.71-1.09-3.74-3.66,0-3.44,0-6.87,0-10.31,0-1.64.45-3.08,2.16-3.71a5.85,5.85,0,0,1,2.21-.33c1.46,0,2.91.14,4.37.15,8,0,16,0,24.06.11,9.43.18,18.87.13,28.31.25a9.74,9.74,0,0,0,1.53-.07,1.83,1.83,0,0,0,1.61-1.23,1.79,1.79,0,0,0-.68-1.9,4.47,4.47,0,0,0-1.54-.85q-13.57-4.74-27.14-9.48c-6.06-2.13-12.21-4-18.24-6.27a50.89,50.89,0,0,1-10-4.6,18.6,18.6,0,0,1-8.83-14.51,17.14,17.14,0,0,1,3-12A18.18,18.18,0,0,1,81,212.55a54.22,54.22,0,0,1,7.63-.79c12.83-.35,25.67-.06,38.5-.16,8.65-.07,17.3,0,26-.07h1.07c2.38,0,3.29.78,3.34,3.14.08,3.91.06,7.82,0,11.73,0,1.85-.85,2.71-2.67,3.06a6.51,6.51,0,0,1-1.17.08c-9.41,0-18.81.12-28.21,0-9.71-.15-19.42-.07-29.14-.13a3.7,3.7,0,0,0-1.51.19,1.65,1.65,0,0,0-.79,2.68,3.62,3.62,0,0,0,1.76,1.14c2.49,1,5,1.91,7.54,2.8,12.54,4.4,25.18,8.51,37.64,13.14a62.65,62.65,0,0,1,8.91,3.84,20.17,20.17,0,0,1,8.31,7.86,16.3,16.3,0,0,1,1.84,6.31,20.43,20.43,0,0,1-1,9,16.9,16.9,0,0,1-9.75,10.07,30.81,30.81,0,0,1-11.06,2.26c-10.62.36-21.24,0-31.86.17h-2.61Z"></path>
  <path class="cls-1" d="M332.16,288.55c-10.66,0-21.33.06-32,0a56,56,0,0,1-12-1.15,14.94,14.94,0,0,1-11.95-12.94c-.68-6.09,1.16-11.3,6.23-15.1a44.43,44.43,0,0,1,7.44-4.36c5.87-2.81,11.85-5.39,17.8-8q10.54-4.67,21.12-9.28l11.91-5.23a3.9,3.9,0,0,0,1.48-1,1.48,1.48,0,0,0-.69-2.53,4.84,4.84,0,0,0-1.52-.13l-13.87.08c-4.89,0-9.79-.06-14.69.06-7.38.18-14.77.05-22.15.09-2.45,0-4.89.21-7.34,0a5.69,5.69,0,0,1-.71-.07,2.6,2.6,0,0,1-2.44-2.94q0-5.87,0-11.72c0-1.93.56-2.51,2.43-2.83a10.44,10.44,0,0,1,1.76-.14c20.7,0,41.39,0,62.09,0a73.59,73.59,0,0,1,13.06,1c11,2,15.89,15,10.29,23.9a25.14,25.14,0,0,1-8,7.63,88.46,88.46,0,0,1-10.17,5.31c-6.42,3-12.9,5.91-19.4,8.77l-20.36,9c-.83.37-1.65.76-2.46,1.15A3.1,3.1,0,0,0,307,269a1.29,1.29,0,0,0,.54,2.12,2.81,2.81,0,0,0,1.28.18c6.16-.2,12.32.1,18.48-.23H328c8.41,0,16.82,0,25.23-.1,3.79-.06,7.58-.13,11.37-.13h.83c2,.09,3,1.05,3,3.05.05,2.72,0,5.45.06,8.17a29.56,29.56,0,0,1,0,3.88,2.39,2.39,0,0,1-2.26,2.44,10.68,10.68,0,0,1-1.88.16Z"></path>
  <path class="cls-1" d="M262.46,238.17q0,8.52,0,17.05c0,2.06,0,4.11-.08,6.16a53.13,53.13,0,0,1-1.75,12.72,18.32,18.32,0,0,1-8.08,10.41,22.75,22.75,0,0,1-9.09,3.16c-3.83.55-7.69.58-11.55.75-6.12.28-12.23.18-18.35.21-2.68,0-5.37,0-8.05-.1-3.85-.2-7.71-.21-11.55-.65a24.76,24.76,0,0,1-10.11-3.08,18.85,18.85,0,0,1-9.1-12.82,54.86,54.86,0,0,1-1-8.19c-.41-7.34-.19-14.68-.22-22,0-8.76.06-17.51.06-26.27,0-3.45,1.46-4.17,4.15-4.07,5,.17,10,0,14.92.1a25.1,25.1,0,0,1,3.78,0,2.82,2.82,0,0,1,2.7,2.66,11.12,11.12,0,0,1,.06,1.53c0,13.63,0,27.25,0,40.87a37.45,37.45,0,0,0,.39,5.89c.76,4.53,3.23,7,7.8,7.6,2.26.31,4.54.48,6.82.58,1.62.07,3.23.17,4.85.12a74,74,0,0,0,9.53-.72c4.94-.8,7.37-3.5,8-8.55a40.89,40.89,0,0,0,.27-5.31q0-20.31,0-40.63a7,7,0,0,1,.27-2.1,2.59,2.59,0,0,1,2.21-1.9,10.84,10.84,0,0,1,2.35-.12c3.08.18,6.16.05,9.24,0a72.82,72.82,0,0,1,8.74.07,2.81,2.81,0,0,1,2.78,2.82c0,.4,0,.79,0,1.19v22.63Z"></path>
  <path class="cls-1" d="M386.34,237V214.84c0-2.29,1.05-3.57,3.61-3.7.24,0,.48,0,.71,0h17.19a11.15,11.15,0,0,1,1.29.07c2.3.27,2.92,1.77,3,3.44,0,.35,0,.71,0,1.06q0,20.74,0,41.48a30.43,30.43,0,0,0,.51,5.87,8,8,0,0,0,6.1,6.52,27.83,27.83,0,0,0,6.8.78c2.17.06,4.33.31,6.5.18a85.84,85.84,0,0,0,9.07-.65,13.85,13.85,0,0,0,3.61-1.11,7.67,7.67,0,0,0,4.45-6.27c.14-1,.15-2,.19-3.06.08-1.77.19-3.55.2-5.32q0-19.08,0-38.15c0-.44,0-.87,0-1.31a3.32,3.32,0,0,1,3.37-3.53c.31,0,.63,0,.95,0h16.94c3.34,0,4.25,1.66,4.15,4.41,0,.91,0,1.82,0,2.72,0,12.84.06,25.67-.06,38.5a58.6,58.6,0,0,1-2.07,16,20,20,0,0,1-7.24,10.81,21,21,0,0,1-10.06,3.84c-3,.4-6.11.55-9.18.76-7.84.54-15.69.5-23.54.34-2.24,0-4.5-.07-6.74-.22-3.25-.23-6.53-.19-9.77-.66a24.27,24.27,0,0,1-11.08-4.13,19,19,0,0,1-7.49-11.69,62.12,62.12,0,0,1-1.22-10.54c-.27-5.92,0-11.84-.15-17.76,0-2.17,0-4.34,0-6.52Z"></path>
  <path class="cls-1" d="M51,250.2q0,17.24,0,34.47a12.8,12.8,0,0,1-.18,1.76,2.48,2.48,0,0,1-2.29,2.34,10.09,10.09,0,0,1-1.65.1H29.45a9.31,9.31,0,0,1-2.35-.26,2.52,2.52,0,0,1-1.89-1.92,6.77,6.77,0,0,1-.23-1.75c0-8.06-.07-16.12,0-24.17.19-15.17.1-30.33.14-45.5a4,4,0,0,1,.42-2.17,2.56,2.56,0,0,1,1.76-1.28,10.11,10.11,0,0,1,2-.22H47a8.67,8.67,0,0,1,1.52.13A2.49,2.49,0,0,1,50.89,214a7.84,7.84,0,0,1,.17,2V250.2Z"></path>
</svg>
