<svg xmlns="http://www.w3.org/2000/svg" enable-background="new 0 0 40 40" viewBox="0 0 40 40" id="audi">
  <switch>
    <g>
      <path fill-rule="evenodd" d="M30.5,14.5c-1.3,0-2.5,0.5-3.5,1.3c-1-0.8-2.2-1.3-3.5-1.3S21,15,20,15.8c-1-0.8-2.2-1.3-3.5-1.3
			S14,15,13,15.8c-1-0.8-2.2-1.3-3.5-1.3C6.5,14.5,4,17,4,20s2.5,5.5,5.5,5.5c1.3,0,2.5-0.5,3.5-1.3c1,0.8,2.2,1.3,3.5,1.3
			S19,25,20,24.2c1,0.8,2.2,1.3,3.5,1.3S26,25,27,24.2c1,0.8,2.2,1.3,3.5,1.3c3,0,5.5-2.5,5.5-5.5S33.5,14.5,30.5,14.5z M27,22.8
			c-0.6-0.8-1-1.7-1-2.8c0-1.1,0.4-2,1-2.8c0.6,0.8,1,1.7,1,2.8C28,21.1,27.6,22,27,22.8z M20,22.8c-0.6-0.8-1-1.7-1-2.8
			c0-1.1,0.4-2,1-2.8c0.6,0.8,1,1.7,1,2.8C21,21.1,20.6,22,20,22.8z M13,22.8c-0.6-0.8-1-1.7-1-2.8c0-1.1,0.4-2,1-2.8
			c0.6,0.8,1,1.7,1,2.8C14,21.1,13.6,22,13,22.8z M5,20c0-2.5,2-4.5,4.5-4.5c1.1,0,2,0.4,2.8,1c-0.8,1-1.3,2.2-1.3,3.5
			s0.5,2.6,1.3,3.5c-0.8,0.6-1.7,1-2.8,1C7,24.5,5,22.5,5,20z M13.7,23.5c0.8-1,1.3-2.2,1.3-3.5s-0.5-2.6-1.3-3.5
			c0.8-0.6,1.7-1,2.8-1s2,0.4,2.8,1c-0.8,1-1.3,2.2-1.3,3.5s0.5,2.6,1.3,3.5c-0.8,0.6-1.7,1-2.8,1S14.5,24.1,13.7,23.5z M20.7,23.5
			c0.8-1,1.3-2.2,1.3-3.5s-0.5-2.6-1.3-3.5c0.8-0.6,1.7-1,2.8-1s2,0.4,2.8,1c-0.8,1-1.3,2.2-1.3,3.5s0.5,2.6,1.3,3.5
			c-0.8,0.6-1.7,1-2.8,1S21.5,24.1,20.7,23.5z M30.5,24.5c-1.1,0-2-0.4-2.8-1c0.8-1,1.3-2.2,1.3-3.5s-0.5-2.6-1.3-3.5
			c0.8-0.6,1.7-1,2.8-1c2.5,0,4.5,2,4.5,4.5C35,22.5,33,24.5,30.5,24.5z" clip-rule="evenodd"></path>
    </g>
  </switch>
</svg>
