<svg xmlns="http://www.w3.org/2000/svg" viewBox="0 0 24 24" id="citroen">
  <path d="M.293 14.077a.363.363 0 0 0 .31-.107c.928-.808 8.33-7.173 11.397-7.173 3.066 0 10.469 6.365 11.396 7.173.063.055.15.126.311.107.231-.026.238-.38.238-.38s.055-.809.055-1.623c0-1.026-.8-1.923-.8-1.923S14.904 1 12 1C9.095 1 .8 10.151.8 10.151s-.8.897-.8 1.923c0 .814.055 1.623.055 1.623s.007.354.238.38z"></path>
  <path d="M12 9.42C9.095 9.42.8 18.571.8 18.571s-.8.897-.8 1.923c0 .814.055 1.623.055 1.623s.007.354.238.381a.366.366 0 0 0 .31-.107c.928-.81 8.33-7.175 11.397-7.175 3.066 0 10.469 6.365 11.396 7.174.063.055.15.125.311.107.231-.027.238-.381.238-.381s.055-.808.055-1.622c0-1.026-.8-1.923-.8-1.923S14.904 9.42 12 9.42z"></path>
</svg>
